<?xml version="1.0" standalone="no"?>
<svg xmlns:xlink="http://www.w3.org/1999/xlink" id="wave" style="transform:rotate(180deg); transition: 0.3s" viewBox="0 0 1440 490" version="1.1" xmlns="http://www.w3.org/2000/svg"><defs><linearGradient id="sw-gradient-0" x1="0" x2="0" y1="1" y2="0"><stop stop-color="rgba(243, 106, 62, 1)" offset="0%"/><stop stop-color="rgba(255, 179, 11, 1)" offset="100%"/></linearGradient></defs><path style="transform:translate(0, 0px); opacity:1" fill="url(#sw-gradient-0)" d="M0,392L30,334.8C60,278,120,163,180,171.5C240,180,300,310,360,359.3C420,408,480,376,540,351.2C600,327,660,310,720,294C780,278,840,261,900,277.7C960,294,1020,343,1080,326.7C1140,310,1200,229,1260,179.7C1320,131,1380,114,1440,155.2C1500,196,1560,294,1620,343C1680,392,1740,392,1800,334.8C1860,278,1920,163,1980,114.3C2040,65,2100,82,2160,81.7C2220,82,2280,65,2340,49C2400,33,2460,16,2520,32.7C2580,49,2640,98,2700,122.5C2760,147,2820,147,2880,130.7C2940,114,3000,82,3060,106.2C3120,131,3180,212,3240,261.3C3300,310,3360,327,3420,277.7C3480,229,3540,114,3600,98C3660,82,3720,163,3780,212.3C3840,261,3900,278,3960,269.5C4020,261,4080,229,4140,204.2C4200,180,4260,163,4290,155.2L4320,147L4320,490L4290,490C4260,490,4200,490,4140,490C4080,490,4020,490,3960,490C3900,490,3840,490,3780,490C3720,490,3660,490,3600,490C3540,490,3480,490,3420,490C3360,490,3300,490,3240,490C3180,490,3120,490,3060,490C3000,490,2940,490,2880,490C2820,490,2760,490,2700,490C2640,490,2580,490,2520,490C2460,490,2400,490,2340,490C2280,490,2220,490,2160,490C2100,490,2040,490,1980,490C1920,490,1860,490,1800,490C1740,490,1680,490,1620,490C1560,490,1500,490,1440,490C1380,490,1320,490,1260,490C1200,490,1140,490,1080,490C1020,490,960,490,900,490C840,490,780,490,720,490C660,490,600,490,540,490C480,490,420,490,360,490C300,490,240,490,180,490C120,490,60,490,30,490L0,490Z"/></svg>